<svg class="icon" style="width: 1em;height: 1em;vertical-align: middle;fill: currentColor;overflow: hidden;" viewBox="0 0 1024 1024" version="1.1" xmlns="http://www.w3.org/2000/svg" p-id="1385"><path d="M125.258667 395.2c-14.016 105.909333-6.4 234.293333-0.277334 337.504l0.021334 0.234667c3.413333 57.450667 28.405333 101.322667 72.277333 126.912 33.429333 19.498667 70.538667 25.109333 105.642667 28.266666 42.261333 3.808 120.736 7.861333 214.4 7.882667 93.685333-0.021333 172.16-4.085333 214.410666-7.893333 35.114667-3.146667 72.213333-8.757333 105.653334-28.266667 43.872-25.578667 68.864-69.461333 72.288-126.901333V732.8c6.133333-103.232 13.76-231.669333-0.277334-337.6-13.866667-104.864-91.274667-135.264-131.008-136.810667a3286.506667 3286.506667 0 0 0-106.026666-5.258666c9.813333-10.997333 25.898667-30.058667 37.525333-49.109334q17.888-29.301333-11.093333-53.717333-14.613333-12.448-28.405334-11.584-15.306667 0.96-29.578666 18.293333c-20.437333 24.832-49.973333 72.16-63.306667 94.005334a4644.352 4644.352 0 0 0-51.072-0.277334l-69.28 0.277334c-13.333333-21.845333-42.858667-69.173333-63.306667-94.005334q-14.282667-17.333333-29.578666-18.293333-13.781333-0.853333-28.394667 11.584-28.992 24.416-11.114667 53.717333c11.637333 19.050667 27.712 38.112 37.525334 49.109334-35.370667 1.173333-70.72 2.933333-106.026667 5.258666-39.722667 1.536-117.12 31.946667-130.997333 136.810667z" fill="#FFFFFF" p-id="1386"></path><path d="M124.981333 732.704c-6.122667-103.210667-13.738667-231.594667 0.277334-337.504 13.866667-104.864 91.274667-135.264 130.997333-136.810667 35.306667-2.325333 70.656-4.085333 106.026667-5.258666-9.813333-10.997333-25.888-30.058667-37.525334-49.109334q-17.888-29.301333 11.114667-53.717333 14.613333-12.437333 28.394667-11.584 15.296 0.96 29.578666 18.293333c20.448 24.832 49.973333 72.16 63.306667 94.005334l69.28-0.277334c17.28 0 34.293333 0.106667 51.072 0.277334 13.333333-21.845333 42.869333-69.173333 63.306667-94.005334q14.272-17.333333 29.578666-18.293333 13.781333-0.853333 28.405334 11.584 28.981333 24.416 11.093333 53.717333c-11.626667 19.050667-27.701333 38.112-37.514667 49.109334 36.928 1.258667 72.341333 3.008 106.026667 5.258666 39.722667 1.536 117.12 31.946667 130.997333 136.810667 14.026667 105.930667 6.4 234.368 0.288 337.6l-0.010666 0.138667c-3.413333 57.44-28.416 101.322667-72.288 126.912-33.44 19.498667-70.538667 25.109333-105.642667 28.266666-42.261333 3.797333-120.736 7.861333-214.410667 7.882667-93.674667-0.021333-172.16-4.074667-214.410666-7.893333-35.104-3.146667-72.213333-8.757333-105.642667-28.266667-43.872-25.578667-68.864-69.450667-72.277333-126.901333l-0.021334-0.234667z m650.4-401.141333l-1.386666-0.064c-74.474667-4.981333-157.76-7.509333-247.562667-7.509334h-18.208c-89.792 0-173.077333 2.528-247.552 7.52l-1.386667 0.064c-0.106667 0-12.181333 1.077333-24.928 8.746667-19.594667 11.754667-31.605333 33.429333-35.701333 64.384-13.12 99.104-5.706667 223.765333 0.245333 323.946667 3.829333 64.373333 43.498667 80.469333 110.741334 86.517333 14.037333 1.28 89.962667 7.562667 207.690666 7.584 117.738667-0.021333 193.664-6.314667 207.701334-7.584 67.242667-6.048 106.922667-22.144 110.741333-86.528 5.952-100.170667 13.354667-224.832 0.245333-323.936-4.096-30.965333-16.106667-52.629333-35.712-64.394667-12.746667-7.658667-24.821333-8.746667-24.928-8.746666zM249.941333 548.906667c7.488 15.146667 25.973333 21.418667 41.269334 13.973333 0.608-0.298667 61.568-29.706667 134.869333-51.946667 16.298667-4.906667 25.482667-21.994667 20.48-38.122666-4.992-16.138667-22.261333-25.194667-38.56-20.234667-77.92 23.637333-141.28 54.208-143.936 55.498667a30.368 30.368 0 0 0-14.112 40.832z m493.525334 13.973333c15.285333 7.402667 33.76 1.152 41.248-13.973333a30.368 30.368 0 0 0-14.101334-40.842667c-2.666667-1.290667-66.026667-31.861333-143.946666-55.488-16.288-4.949333-33.536 4.117333-38.506667 20.234667-4.992 16.106667 4.16 33.173333 20.448 38.122666 73.045333 22.154667 134.24 51.637333 134.858667 51.946667zM575.008 679.509333c51.658667 0 65.76-67.530667 66.325333-70.410666a14.645333 14.645333 0 0 0-11.637333-17.205334 14.773333 14.773333 0 0 0-17.397333 11.52c-0.106667 0.469333-10.133333 46.805333-37.290667 46.805334-29.098667 0-44.544-40.64-44.693333-41.002667a14.805333 14.805333 0 0 0-13.834667-9.674667h-0.074667c-6.186667 0-11.701333 3.797333-13.866666 9.525334-4.032 10.666667-20.330667 41.141333-41.653334 41.141333-20.394667 0-35.210667-35.498667-38.794666-47.936a14.826667 14.826667 0 0 0-18.208-9.952 14.634667 14.634667 0 0 0-10.282667 17.898667c2.016 7.093333 21.024 69.290667 67.306667 69.290666 25.834667 0 44.213333-18.133333 55.530666-34.496 11.562667 16.394667 30.656 34.496 58.570667 34.496z" fill="#00AEEC" p-id="1387"></path></svg>